<svg xmlns="http://www.w3.org/2000/svg" xmlns:xlink="http://www.w3.org/1999/xlink" fill="none" version="1.1" width="413" height="85" viewBox="0 0 413 85"><defs><linearGradient x1="0" y1="0.5000000596046448" x2="0.9999989867210388" y2="0.5000000596046448" id="master_svg0_26_04053"><stop offset="0%" stop-color="#FF6C71" stop-opacity="1"/><stop offset="100%" stop-color="#FF2930" stop-opacity="1"/></linearGradient><linearGradient x1="0.0000032223422294919146" y1="0.5" x2="1" y2="0.5" id="master_svg1_26_04050"><stop offset="0%" stop-color="#FF6C71" stop-opacity="1"/><stop offset="100%" stop-color="#FF2930" stop-opacity="1"/></linearGradient><linearGradient x1="1.9626106961823098e-8" y1="0.5000009536743164" x2="1.0000003576278687" y2="0.5000009536743164" id="master_svg2_26_04038"><stop offset="0%" stop-color="#FF6C71" stop-opacity="1"/><stop offset="17.000000178813934%" stop-color="#FC4E54" stop-opacity="1"/><stop offset="50%" stop-color="#F93037" stop-opacity="1"/><stop offset="77.99999713897705%" stop-color="#FC4E54" stop-opacity="1"/><stop offset="100%" stop-color="#FF6C71" stop-opacity="1"/></linearGradient><linearGradient x1="4.404872894287109" y1="0.01236260961741209" x2="4.404872894287109" y2="1.1917065382003784" id="master_svg3_26_04023"><stop offset="0%" stop-color="#FFFFFF" stop-opacity="1"/><stop offset="98.00000190734863%" stop-color="#EEBB8C" stop-opacity="1"/></linearGradient><linearGradient x1="3.5755460262298584" y1="-0.1497572958469391" x2="3.5755460262298584" y2="1.1023319959640503" id="master_svg4_26_04024"><stop offset="0%" stop-color="#FFFFFF" stop-opacity="1"/><stop offset="98.00000190734863%" stop-color="#EEBB8C" stop-opacity="1"/></linearGradient><linearGradient x1="2.4789624214172363" y1="-0.23662464320659637" x2="2.4789624214172363" y2="1.039853572845459" id="master_svg5_26_04025"><stop offset="0%" stop-color="#FFFFFF" stop-opacity="1"/><stop offset="98.00000190734863%" stop-color="#EEBB8C" stop-opacity="1"/></linearGradient><linearGradient x1="1.4675754308700562" y1="-0.24215111136436462" x2="1.4675754308700562" y2="0.9997261762619019" id="master_svg6_26_04026"><stop offset="0%" stop-color="#FFFFFF" stop-opacity="1"/><stop offset="98.00000190734863%" stop-color="#EEBB8C" stop-opacity="1"/></linearGradient><linearGradient x1="1.1681463718414307" y1="-1.0093047618865967" x2="1.1681463718414307" y2="1.1874213218688965" id="master_svg7_26_04027"><stop offset="0%" stop-color="#FFFFFF" stop-opacity="1"/><stop offset="98.00000190734863%" stop-color="#EEBB8C" stop-opacity="1"/></linearGradient><linearGradient x1="-1.3648521900177002" y1="-0.412860244512558" x2="-1.3648521900177002" y2="1.1325675249099731" id="master_svg8_26_04028"><stop offset="0%" stop-color="#FFFFFF" stop-opacity="1"/><stop offset="98.00000190734863%" stop-color="#EEBB8C" stop-opacity="1"/></linearGradient><linearGradient x1="-8.96280288696289" y1="-5.987551689147949" x2="-8.96280288696289" y2="1.8478782176971436" id="master_svg9_26_04029"><stop offset="0%" stop-color="#FFFFFF" stop-opacity="1"/><stop offset="98.00000190734863%" stop-color="#EEBB8C" stop-opacity="1"/></linearGradient><linearGradient x1="-6.119939804077148" y1="-0.3817758560180664" x2="-6.119939804077148" y2="1.1937692165374756" id="master_svga_26_04030"><stop offset="0%" stop-color="#FFFFFF" stop-opacity="1"/><stop offset="98.00000190734863%" stop-color="#EEBB8C" stop-opacity="1"/></linearGradient><linearGradient x1="-2.0214152336120605" y1="-2.899134397506714" x2="-2.0214152336120605" y2="3.4097201824188232" id="master_svgb_26_04031"><stop offset="0%" stop-color="#FFFFFF" stop-opacity="1"/><stop offset="98.00000190734863%" stop-color="#EEBB8C" stop-opacity="1"/></linearGradient><linearGradient x1="-5.992823600769043" y1="-0.22247600555419922" x2="-5.992823600769043" y2="1.3189685344696045" id="master_svgc_26_04032"><stop offset="0%" stop-color="#FFFFFF" stop-opacity="1"/><stop offset="98.00000190734863%" stop-color="#EEBB8C" stop-opacity="1"/></linearGradient><linearGradient x1="-24.483314514160156" y1="-4.797425270080566" x2="-24.483314514160156" y2="3.001391649246216" id="master_svgd_26_04033"><stop offset="0%" stop-color="#FFFFFF" stop-opacity="1"/><stop offset="98.00000190734863%" stop-color="#EEBB8C" stop-opacity="1"/></linearGradient><linearGradient x1="-8.432015419006348" y1="-0.07143599539995193" x2="-8.432015419006348" y2="1.4372856616973877" id="master_svge_26_04034"><stop offset="0%" stop-color="#FFFFFF" stop-opacity="1"/><stop offset="98.00000190734863%" stop-color="#EEBB8C" stop-opacity="1"/></linearGradient></defs><g><g><g><path d="M0,31.2346C4.5444,37.155,26.0591,45.5952,38.8889,43.564C44.047,38.6703,53.9877,17.6162,55.1566,15.2669C37.6067,12.9177,16.7984,4.13473,7.2856,0Q22.1856,23.5631,24.8889,26.3028C19.6136,27.4523,4.66153,31.0393,0,31.2346Z" fill="url(#master_svg0_26_04053)" fill-opacity="1"/></g><g><path d="M50.94445788574219,27.535755661010743C51.99065788574219,23.977925661010744,53.66665788574219,18.08321566101074,55.22215788574219,14.795255661010742Q42.51085788574219,17.870715661010742,39.506379885742184,20.037825661010743C36.50189788574219,22.205175661010742,44.37478788574219,26.704355661010744,50.94445788574219,27.535755661010743Z" fill="#C61016" fill-opacity="1"/></g><g><path d="M357.8431091308594,15.1597C359.0120991308594,17.4925,368.9529091308594,38.3986,374.1111091308594,43.2579C386.94050913085937,45.2749,408.4554091308594,36.8939,413.0000091308594,31.0152C408.3380091308594,30.8212,393.3860091308594,27.2594,388.1111091308594,26.118Q390.8139091308594,23.3975,405.71450913085937,0C396.2015091308594,4.10571,375.3929091308594,12.8269,357.8431091308594,15.1597Z" fill="url(#master_svg1_26_04050)" fill-opacity="1"/></g><g><path d="M360.88888099609375,26.713837928771973C367.45876099609376,25.88823792877197,376.49807099609376,22.049167928771972,373.49357099609375,19.897187928771974Q370.48897099609377,17.745117928771972,357.77777099609375,15.206337928771973C358.55554899609376,17.776227928771974,359.84277099609375,23.18094792877197,360.88888099609375,26.713837928771973Z" fill="#C61016" fill-opacity="1"/></g><g><path d="M374.110832611084,20.54900360107422C309.944832611084,47.673903601074215,78.16663261108398,39.86530360107422,38.88896261108398,21.37096760107422Q33.38759261108398,37.42160360107422,38.91526261108398,59.481703601074216C107.72223261108398,94.52570360107421,307.610832611084,92.47100360107422,374.27083261108396,59.481703601074216Q379.80683261108396,37.42190360107422,374.110832611084,20.54900360107422Z" fill="url(#master_svg2_26_04038)" fill-opacity="1"/></g></g><g><g><g><path d="M83.9999534765625,56.718543945312504C83.4102534765625,58.2300439453125,82.7731134765625,59.7081439453125,82.1156334765625,61.1397439453125C81.4581534765625,62.5713439453125,80.8752334765625,63.6832439453125,80.4617634765625,64.4689439453125C80.0959834765625,65.4103439453125,78.9329334765625,65.7716439453125,78.0826334765625,65.2080439453125L77.9674034765625,65.1348439453125C76.9371281865625,64.6221439453125,76.6727804765625,63.8430439453125,77.2150324765625,62.8110439453125Q78.9231234765625,59.5816439453125,80.6041034765625,55.540043945312505C80.8414334765625,54.5750439453125,81.9392434765625,54.0866439453125,82.8341134765625,54.5479439453125L82.9561234765625,54.5479439453125C84.0406234765625,54.9673439453125,84.3930834765625,55.6931439453125,83.9999534765625,56.718543945312504ZM84.0745134765625,40.5985239453125C84.3591934765625,41.5972939453125,84.5015434765625,42.0966739453125,84.7930034765625,43.0954339453125C85.2188234765625,43.9954239453125,84.6295334765625,45.0421239453125,83.6271534765625,45.1662039453125L83.5051534765625,45.2061539453125C82.5685934765625,45.6200339453125,81.4900234765625,45.0336339453125,81.3497034765625,44.0342739453125C81.0650134765625,43.0355139453125,80.9226734765625,42.5361239453125,80.6718834765625,41.5373639453125C80.26758347656249,40.6472639453125,80.8311634765625,39.6224019453125,81.8106134765625,39.4665969453125L81.9326234765625,39.4266459453125C82.8657634765625,39.0178209453125,83.9370634765625,39.6039539453125,84.0745134765625,40.5985239453125ZM83.1391334765625,48.1358639453125C83.4238134765625,49.1412839453125,83.5729334765625,49.6406439453125,83.8576134765625,50.6394439453125C84.1422934765625,51.6381439453125,83.8101634765625,52.3905439453125,82.6917734765625,52.703543945312504L82.5629834765625,52.7501439453125C81.6209534765625,53.1628439453125,80.5387734765625,52.5748439453125,80.3939834765625,51.5716439453125L79.7161634765625,49.074693945312504C79.3029434765625,48.174443945312504,79.8918634765625,47.1377839453125,80.8887834765625,47.0105839453125L81.0040134765625,46.9639739453125C81.9346434765625,46.5737839453125,82.9895834765625,47.1527939453125,83.1391334765625,48.1358639453125ZM106.8626634765625,51.3984439453125L106.8626634765625,51.5116439453125C106.9027634765625,52.4833439453125,105.9778634765625,53.2182439453125,105.0189634765625,52.9765439453125C98.1459634765625,52.3106439453125,94.7161634765625,51.9311439453125,87.8567634765625,51.1388439453125C86.8818134765625,51.1413439453125,86.1716134765625,50.2321439453125,86.4265334765625,49.3077439453125L86.4265334765625,49.1878839453125C86.4105134765625,48.218383945312496,87.3442634765625,47.5038339453125,88.2972634765625,47.7563239453125C95.10936347656249,48.5619939453125,98.53226347656249,48.9282139453125,105.4053634765625,49.6073439453125C106.37816347656249,49.5807439453125,107.11106347656249,50.469143945312496,106.88296347656251,51.3984439453125L106.8626634765625,51.3984439453125ZM104.7275634765625,42.2298439453125C105.1981634765625,42.1960739453125,105.6652634765625,42.3309039453125,106.0424634765625,42.6093739453125C106.3620634765625,42.9302539453125,106.5335634765625,43.3659239453125,106.5169634765625,43.8145439453125L106.5169634765625,43.9277339453125C106.7332634765625,44.8815439453125,105.9167634765625,45.7555239453125,104.93086347656251,45.6256339453125C102.0569634765625,45.6499339453125,99.1842634765625,45.4987239453125,96.32936347656249,45.1728639453125C93.6994634765625,44.8865539453125,92.3980634765625,44.746723945312496,89.8155634765625,44.4470939453125C88.8308634765625,44.4885839453125,88.0816634765625,43.5893739453125,88.3176634765625,42.6493239453125L88.3176634765625,42.5294739453125C88.29816347656251,41.5643539453125,89.2252634765625,40.8497539453125,90.1748634765625,41.0979139453125C92.7708634765625,41.3975339453125,94.0722634765625,41.5440239453125,96.6750634765625,41.8236739453125C99.3489634765625,42.1121839453125,102.0376634765625,42.2478039453125,104.7275634765625,42.2298439453125ZM90.3578634765625,54.8808439453125C94.9330634765625,55.3935439453125,97.2173634765625,55.639943945312496,101.79256347656249,56.105943945312504Q104.9850634765625,56.4255439453125,104.6732634765625,59.5017439453125C104.4292634765625,61.8522439453125,104.3072634765625,63.0240439453125,104.0700634765625,65.3745439453125Q103.75146347656249,68.4640439453125,100.52506347656251,68.1310439453125C95.8955634765625,67.6650439453125,93.5842634765625,67.4119439453125,88.9547634765625,66.8926439453125C86.8061034765625,66.6529439453125,85.8503934765625,65.5010439453125,86.1011834765625,63.4502439453125C86.3790834765625,61.1064439453125,86.5214234765625,59.9345439453125,86.7789934765625,57.5908439453125C87.0365634765625,55.5533439453125,88.2227634765625,54.6344439453125,90.3510634765625,54.8941439453125L90.3578634765625,54.8808439453125ZM101.01306347656251,59.4285439453125C96.7631634765625,58.9957439453125,94.6348634765625,58.762643945312504,90.3849634765625,58.2899439453125L89.7749634765625,63.5767439453125C94.0451634765625,64.0561439453125,96.1802634765625,64.2825439453125,100.4572634765625,64.7219439453125C100.6606634765625,62.624543945312496,100.7826634765625,61.5592439453125,101.0063634765625,59.4418439453125L101.01306347656251,59.4285439453125ZM98.97966347656251,45.4458539453125C98.53226347656249,49.5474439453125,98.3018634765625,51.598243945312504,97.8544634765625,55.6998439453125C97.89186347656249,56.7159439453125,96.9136634765625,57.4752439453125,95.9159634765625,57.2046439453125L95.7939634765625,57.2046439453125C94.7482634765625,57.2601439453125,93.9554634765625,56.2916439453125,94.2349634765625,55.3003439453125L95.3872634765625,45.0530139453125C95.3586634765625,44.0504639453125,96.3175634765625,43.3015139453125,97.3054634765625,43.5548639453125L97.4206634765625,43.5548639453125C98.4599634765625,43.5038639453125,99.2448634765625,44.4677039453125,98.9660634765625,45.4525139453125L98.97966347656251,45.4458539453125Z" fill="#000000" fill-opacity="1"/></g><g><path d="M121.7271231262207,54.84755699234009L121.7271231262207,54.967356992340086C121.7781231262207,55.954456992340084,120.8477231262207,56.71165699234009,119.8699231262207,56.478856992340084C116.14870312622071,56.165956992340085,114.2914931262207,55.999456992340086,110.5702931262207,55.65325699234009C109.5626731262207,55.70645699234009,108.7858621262207,54.79345699234009,109.0180961262207,53.82875699234009L109.0180961262207,53.71561699234009C108.98013312622071,52.729706992340084,109.9134631262207,51.98227699234009,110.8888631262207,52.217466992340086C114.5965131262207,52.56370699234009,116.45372312622071,52.73016699234009,120.16132312622071,53.043106992340086C121.16392312622071,52.98419699234009,121.94512312622071,53.88445699234009,121.7271231262207,54.84755699234009ZM122.0118231262207,46.64436699234009L122.0118231262207,46.75756699234009C122.0649231262207,47.74032699234009,121.1439231262207,48.49872699234009,120.1681231262207,48.275686992340084C116.81296312622071,47.98936699234009,115.1319831262207,47.83622699234009,111.7768031262207,47.52993699234009C110.7755931262207,47.578746992340086,110.00664312622071,46.67030699234009,110.2381631262207,45.71219699234009L110.2381631262207,45.59233699234009C110.2104931262207,44.61897599234009,111.1317931262207,43.885705992340085,112.09537312622071,44.11417199234009C115.4370031262207,44.42711799234009,117.1112031262207,44.573602992340085,120.4596231262207,44.85991699234009C121.4488231262207,44.807816992340086,122.2185231262207,45.69265699234009,122.0118231262207,46.64436699234009ZM116.1215931262207,56.83175699234009C114.6371831262207,60.06775699234009,113.89158312622071,61.68575699234009,112.38683312622071,64.91505699234008C114.09493312622071,65.07485699234009,114.9557531262207,65.14815699234009,116.6638531262207,65.29455699234009L116.7994131262207,63.816456992340086C116.75637312622071,62.80645699234009,117.7113231262207,62.03805699234009,118.7108231262207,62.278356992340086L118.82612312622071,62.278356992340086C119.8524231262207,62.210856992340084,120.6581231262207,63.12875699234009,120.4393231262207,64.11605699234009C120.3782231262207,64.84845699234009,120.31722312622071,65.20805699234009,120.31722312622071,65.95375699234009C120.3068231262207,66.8143569923401,119.9367231262207,67.63295699234008,119.2937231262207,68.2176569923401C118.5670231262207,68.72515699234009,117.6659531262207,68.93095699234009,116.7858531262207,68.79025699234009C114.6914031262207,68.61045699234009,113.6407931262207,68.5172569923401,111.5463431262207,68.3241569923401Q109.3231131262207,68.12445699234009,108.6181871262207,66.9924569923401C108.1504961262207,66.25345699234009,108.23183332622071,65.22135699234009,108.8757581262207,63.88965699234009C110.4686231262207,60.507156992340086,111.2548831262207,58.81595699234009,112.8274131262207,55.42685699234009C113.1307731262207,54.46425699234009,114.2703531262207,54.03345699234009,115.15232312622071,54.54795699234009L115.2675531262207,54.62115699234009C116.2401931262207,54.88445699234009,116.6714831262207,56.00085699234009,116.1215931262207,56.83175699234009ZM129.5965231262207,45.59899699234009C129.2915231262207,49.50083699234009,129.1356231262207,51.45174699234009,128.8238231262207,55.35355699234009C128.6423231262207,57.95505699234009,128.1439231262207,60.52585699234009,127.33942312622071,63.01075699234009C126.5493231262207,65.32785699234009,125.3794231262207,67.5027569923401,123.87582312622071,69.44945699234009C123.36772312622071,70.34465699234009,122.1069231262207,70.46815699234008,121.4289231262207,69.68915699234009L121.3136231262207,69.6225569923401C120.45072312622071,69.07005699234008,120.3288231262207,67.87545699234009,121.0628231262207,67.16565699234009C122.3195231262207,65.51335699234009,123.2947231262207,63.67165699234009,123.9503231262207,61.71235699234009C124.6373231262207,59.54945699234009,125.0628231262207,57.31455699234009,125.21782312622071,55.05395699234009C125.54322312622071,51.17209699234009,125.7398231262207,49.22117699234009,126.02442312622071,45.31268699234009C125.9685231262207,44.31636299234009,126.8972231262207,43.543413992340085,127.8884231262207,43.761276292340085L128.0104231262207,43.761276292340085C129.0336231262207,43.694239792340085,129.8312231262207,44.61839099234009,129.5965231262207,45.59899699234009ZM135.7714231262207,49.06803699234009C136.33282312622072,49.767806992340084,136.5778231262207,50.66299699234009,136.44922312622072,51.544966992340086C135.9748231262207,58.07685699234009,135.7714231262207,61.33945699234009,135.2698231262207,67.86475699234009C135.2691231262207,68.75255699234009,134.8994231262207,69.6015569923401,134.24632312622072,70.21515699234008C133.5069231262207,70.77005699234009,132.5715231262207,71.00995699234008,131.6503231262207,70.88105699234009L130.09132312622071,70.76785699234009C128.8509231262207,70.67455699234009,128.2816231262207,70.03535699234008,128.3697231262207,68.85015699234009L128.3697231262207,68.73695699234008Q128.4985231262207,66.95925699234009,130.3625231262207,67.09905699234008L131.63672312622072,67.19225699234009C132.1044231262207,61.01325699234009,132.3146231262207,57.92375699234009,132.8094231262207,51.751376992340084C129.4203231262207,51.498356992340085,127.6851231262207,51.36519699234009,124.2689231262207,51.08553699234009C123.1958231262207,51.15639699234009,122.3563231262207,50.19150699234009,122.5947231262207,49.161256992340086L122.5947231262207,49.041406992340086C122.5344231262207,47.98844699234009,123.52222312622071,47.17478699234009,124.56712312622071,47.41674699234009C128.0714231262207,47.70306699234009,129.8270231262207,47.83622699234009,133.3381231262207,48.082596992340086C134.2502231262207,48.08083699234009,135.12562312622072,48.43534699234009,135.7714231262207,49.06803699234009Z" fill="#000000" fill-opacity="1"/></g><g><path d="M143.70186475585936,45.978532092791745L148.16866475585937,46.251526892791745C150.2766247558594,46.37803689279175,151.26622475585938,47.463355892791746,151.15102475585937,49.527465892791746C150.73762475585937,56.618665892791746,150.53422475585938,60.18096589279175,150.12752475585938,67.25886589279175Q149.94452475585936,70.35496589279174,146.7384747558594,70.16856589279175L142.17000475585937,69.88896589279175Q138.93682875585938,69.68246589279175,139.14694965585937,66.55966589279174C139.63497675585938,59.46846589279175,139.87221075585938,55.90623589279175,140.36023475585938,48.834995892791746C140.47546475585938,46.790858892791746,141.59386475585939,45.832046892791745,143.70186475585936,45.978532092791745ZM148.8939247558594,58.23666589279175L148.8939247558594,58.34986589279175C148.9871347558594,59.367965892791744,148.04609475585937,60.18146589279175,147.0299347558594,59.96116589279175L143.10539475585938,59.72146589279175C142.08648475585937,59.80816589279175,141.26893475585936,58.90836589279175,141.47185475585937,57.92376589279175L141.47185475585937,57.80386589279175C141.36609475585936,56.76916589279175,142.33514475585937,55.943475892791746,143.36295475585936,56.19256589279175L147.27394475585936,56.43226589279175C148.28152475585938,56.36216589279175,149.08334475585937,57.24866589279175,148.8939247558594,58.22336589279175L148.8939247558594,58.23666589279175ZM147.66030475585939,49.73387589279175L143.76965475585936,49.50083589279175C143.36295475585936,56.25246589279175,143.11216475585937,59.628265892791745,142.68514475585937,66.39326589279175L146.63680475585937,66.63296589279174C147.03671475585938,59.867965892791744,147.24683475585937,56.48556589279175,147.66029475585938,49.72056589279175L147.66030475585939,49.73387589279175ZM167.31692475585936,51.591575892791745L167.31692475585936,51.704775892791744C167.41672475585938,52.72141589279175,166.49462475585938,53.54728589279175,165.47322475585938,53.356055892791744C160.84382475585937,53.162965892791746,158.52562475585938,53.04977589279175,153.89622475585938,52.80341589279175C152.86082475585937,52.89916589279175,152.02442475585937,51.987285892791746,152.2287247558594,50.98566589279175L152.2287247558594,50.87246589279175C152.13982475585937,49.85741589279175,153.06982475585937,49.04386589279175,154.08602475585937,49.24781589279175C158.70192475585938,49.494175892791745,161.00642475585937,49.60071589279175,165.60882475585936,49.793805892791745C166.63312475585937,49.69558589279175,167.47152475585938,50.582015892791745,167.29662475585937,51.57826589279175L167.31692475585936,51.591575892791745ZM156.98702475585938,57.61746589279175L157.83432475585937,63.51016589279175C158.11782475585937,64.46246589279176,157.38012475585938,65.41196589279176,156.37022475585937,65.39446589279174L156.24142475585938,65.39446589279174C155.25732475585937,65.69756589279174,154.2586247558594,64.96926589279175,154.26902475585936,63.95626589279175C153.93012475585937,61.59256589279175,153.76742475585937,60.41396589279175,153.43532475585937,58.05686589279175C153.16562475585937,57.11346589279175,153.88822475585937,56.17806589279175,154.88582475585937,56.17926589279175L155.00782475585936,56.17926589279175C155.98072475585937,55.89562589279175,156.9590247558594,56.60716589279175,156.9667247558594,57.60416589279175L156.98702475585938,57.61746589279175ZM165.12082475585936,47.876185892791746L164.15832475585938,69.52936589279174C164.18402475585938,70.40826589279175,163.84372475585937,71.25946589279175,163.21612475585937,71.88646589279175C162.49772475585937,72.45486589279174,161.5771247558594,72.71626589279175,160.66082475585938,72.61216589279175L159.01372475585939,72.53896589279175C157.79362475585938,72.47906589279175,157.21072475585936,71.87316589279175,157.26492475585937,70.69456589279174L157.26492475585937,70.54806589279175C157.32592475585938,69.38286589279176,157.9427247558594,68.83026589279174,159.18312475585938,68.88346589279175L160.53882475585937,68.95006589279174Q161.0471247558594,58.29656589279175,161.54872475585938,47.70306589279175C161.45442475585938,46.70682189279175,162.35762475585938,45.89925219279175,163.35852475585938,46.08506689279175L163.48052475585936,46.08506689279175C164.49462475585938,45.99239529279175,165.31672475585938,46.87972689279175,165.1276247558594,47.862865892791746L165.12082475585936,47.876185892791746Z" fill="#000000" fill-opacity="1"/></g><g><path d="M173.6138374633789,54.38811415679932C173.3698274633789,61.31288415679931,173.2478274633789,64.77528415679932,172.9970274633789,71.69998415679932C172.9563574633789,72.81198415679931,172.3598774633789,73.34458415679931,171.19403746337892,73.30468415679931L171.0720374633789,73.30468415679931C170.0667334633789,73.42608415679932,169.2267574633789,72.56088415679932,169.3978344633789,71.58018415679932L170.0756494633789,54.26826415679932C169.9557154633789,53.28371415679932,170.8371374633789,52.464664156799316,171.8311874633789,52.63695415679932L171.9531874633789,52.63695415679932C172.96891746337892,52.51405415679932,173.81052746337892,53.40152415679932,173.6138374633789,54.38811415679932ZM175.8302974633789,47.47667415679932C176.14209746337892,48.26902415679932,176.29799746337892,48.661874156799314,176.6030074633789,49.47420415679932C177.07197746337891,50.34245415679932,176.5545974633789,51.40907415679931,175.5727274633789,51.598234156799315L175.4507274633789,51.658164156799316C174.55936746337892,52.116924156799314,173.4690874633789,51.60802415679932,173.2681474633789,50.639424156799315L172.5089974633789,48.64189415679932C172.04074746337892,47.771924156799315,172.5569774633789,46.704333156799315,173.5392874633789,46.511204156799316L173.6612874633789,46.45793715679932C174.5492574633789,46.004475156799316,175.6320474633789,46.51304115679932,175.8302974633789,47.47667415679932ZM179.37526746337892,53.808834156799314C182.4457874633789,53.90204415679932,183.9843874633789,53.93534415679932,187.05488746337892,54.008584156799316Q190.14568746337892,54.068504156799314,190.08478746337892,57.07808415679932C190.0101874633789,60.82678415679932,189.9762874633789,62.70448415679932,189.9016874633789,66.45318415679932C189.8610874633789,68.45068415679931,188.7968874633789,69.44278415679932,186.7091874633789,69.39618415679931C183.5844874633789,69.32958415679931,182.0254874633789,69.28968415679932,178.9075774633789,69.19648415679931Q175.7760674633789,69.10988415679932,175.87096746337892,66.09358415679932C175.9997474633789,62.34488415679932,176.0607474633789,60.473884156799315,176.1827674633789,56.725184156799315Q176.2844274633789,53.722274156799315,179.37526746337892,53.808834156799314ZM188.27498746337892,61.65908415679932L188.27498746337892,61.772284156799316C188.3851874633789,62.69078415679932,187.5614874633789,63.45318415679932,186.6346874633789,63.29038415679932C183.6996874633789,63.223884156799315,182.23558746337892,63.19058415679932,179.30747746337892,63.103984156799314C178.3760274633789,63.21348415679932,177.5975374633789,62.415484156799316,177.7485074633789,61.505984156799315L177.7485074633789,61.392784156799316C177.65337746337892,60.478584156799315,178.4743174633789,59.728584156799315,179.39558746337892,59.88798415679932C182.3169874633789,59.97448415679932,183.7742874633789,60.01448415679931,186.7023874633789,60.07438415679932C187.63268746337891,59.957384156799314,188.41778746337891,60.74858415679932,188.27498746337892,61.65908415679932ZM195.5953874633789,48.588634156799316C196.1674874633789,49.22076415679932,196.44948746337892,50.05642415679932,196.3748874633789,50.89910415679932Q196.2324874633789,60.78688415679932,196.10368746337892,70.67458415679931C196.1525874633789,71.51068415679931,195.84858746337892,72.32958415679931,195.2632874633789,72.93848415679932C194.5935874633789,73.50078415679931,193.7204874633789,73.77218415679931,192.8434874633789,73.69088415679931L191.3115874633789,73.69088415679931C190.3256874633789,73.82188415679931,189.4881874633789,72.98578415679931,189.6373874633789,72.01958415679931L189.6373874633789,71.90638415679932C189.52828746337892,70.93768415679932,190.39478746337892,70.13638415679932,191.37258746337892,70.30178415679931L192.5044874633789,70.30178415679931L192.8434874633789,51.16544415679932C187.8072874633789,51.085544156799315,185.2857874633789,51.025614156799314,180.2496874633789,50.88578415679932C179.2714374633789,50.99701415679932,178.45826746337892,50.154934156799314,178.6228974633789,49.201204156799314L178.6228974633789,49.081354156799314C178.5183974633789,48.12246415679932,179.3772874633789,47.331914156799314,180.3444874633789,47.496654156799316C185.5230874633789,47.64313415679932,188.1122874633789,47.69640415679932,193.2907874633789,47.782964156799316C194.1372874633789,47.741034156799316,194.9660874633789,48.03079415679932,195.5953874633789,48.588634156799316ZM186.64818746337892,57.33118415679932C183.8284874633789,57.264584156799316,182.41868746337892,57.23128415679932,179.6056874633789,57.15138415679932C179.4972874633789,60.640384156799314,179.4498874633789,62.384884156799316,179.3413874633789,65.88058415679932C182.1881874633789,65.96048415679931,183.6047874633789,66.00038415679931,186.4448874633789,66.06028415679931L186.64818746337892,57.33118415679932Z" fill="#000000" fill-opacity="1"/></g><g><path d="M204.36627925439453,55.85296664819336C204.80938825439452,55.45897764819336,205.39681825439453,55.25941174819336,205.99302825439455,55.30031825819336L206.05402825439452,55.30031825819336C206.64943825439454,55.26792204819336,207.23312825439453,55.47184564819336,207.67400825439452,55.86628464819336C208.07712825439452,56.29270464819336,208.28314825439452,56.86370064819336,208.24336825439454,57.44433064819336L208.24336825439454,57.49760064819336C208.27729825439454,58.07863064819336,208.06934825439453,58.64825064819336,207.66721825439453,59.07564064819336C207.22081825439454,59.46866064819336,206.63176825439453,59.66794064819336,206.03368825439452,59.62829064819336L205.97268825439454,59.62829064819336C205.37508825439454,59.66175064819336,204.78888825439452,59.457800648193356,204.34593525439453,59.06233064819336C203.94455825439454,58.63523064819336,203.74093225439452,58.06405064819336,203.78334725439453,57.48428064819336L203.78334725439453,57.42435064819336C203.74910285439452,56.84405064819336,203.95998925439454,56.27556764819336,204.36627925439453,55.85296664819336ZM204.29849325439454,67.01247064819336C204.74892825439454,66.61777064819336,205.34376825439452,66.42057064819336,205.94557825439452,66.46647064819336L206.00657825439453,66.46647064819336C206.60572825439453,66.42787064819336,207.19519825439454,66.62967064819335,207.64011825439454,67.02577064819336C208.04783825439452,67.44987064819335,208.25669825439454,68.02187064819336,208.21625825439452,68.60387064819336L208.21625825439452,68.66377064819336C208.25297825439452,69.24437064819335,208.04173825439455,69.81387064819336,207.63333825439454,70.23517064819336C207.18198825439453,70.62897064819336,206.58851825439453,70.82807064819336,205.98625825439453,70.78777064819336L205.92525825439452,70.78777064819336C205.32348825439453,70.82187064819335,204.73284825439453,70.61807064819337,204.28494425439453,70.22187064819336C203.86182725439454,69.79527064819337,203.64473535439453,69.21117064819336,203.68846404439452,68.61717064819337C203.64022605439453,68.02617064819336,203.84964325439452,67.44297064819335,204.26461025439454,67.01247064819336L204.29849325439454,67.01247064819336Z" fill="#000000" fill-opacity="1"/></g><g><path d="M230.15710926171874,61.46600300598145C230.33756726171876,60.83010300598144,230.59469526171875,60.217603005981445,230.92304326171876,59.641603005981445C233.11916326171874,55.87294300598145,234.20366326171876,53.981953005981445,236.34556326171875,50.19997300598145C236.57640326171875,49.76451300598144,236.92308326171874,49.39864500598144,237.34872326171876,49.14128000598144C237.78686326171874,48.897094005981444,238.28195326171874,48.76862640598144,238.78568326171876,48.76840800598144L238.88058326171875,48.76840800598144C239.51309326171875,48.67091250598145,240.14819326171875,48.92766400598145,240.52769326171875,49.43425000598145C240.80219326171874,49.99617300598145,240.73419326171876,50.661683005981445,240.35139326171875,51.15878300598145C238.00619326171875,55.29366300598144,236.82001326171874,57.35777300598144,234.42733326171876,61.47930300598144C234.24748326171874,61.76800300598144,234.11483326171876,62.082503005981444,234.03420326171874,62.411503005981444C233.95004326171875,62.791903005981446,233.91362326171875,63.181003005981445,233.92574326171876,63.570103005981444L229.85885861671875,63.650003005981446C229.84823673171874,62.911503005981444,229.94873606171876,62.17560300598144,230.15710926171874,61.46600300598145ZM233.81053326171875,69.88230300598144C232.64429326171876,69.28200300598144,231.66347326171876,68.38520300598145,230.97048326171875,67.28550300598144C230.27244026171874,66.19080300598145,229.89487166171875,64.92830300598145,229.87920256171876,63.636703005981445C229.84223796171875,62.38900300598144,230.17673926171875,61.157903005981446,230.84169826171876,60.09440300598145C231.50480326171876,59.042903005981444,232.44050326171876,58.18349300598145,233.55295326171876,57.604133005981446C235.91545326171874,56.384483005981444,238.72090326171875,56.313123005981446,241.14449326171876,57.411033005981444C242.28559326171876,57.93500300598144,243.26369326171874,58.74870300598145,243.97769326171874,59.768103005981445C244.69799326171875,60.79390300598145,245.09629326171876,62.004603005981444,245.12329326171874,63.25050300598144C245.17449326171874,64.54110300598144,244.86009326171876,65.82040300598145,244.21499326171875,66.94590300598145C243.57229326171876,68.07850300598145,242.63719326171875,69.02470300598145,241.50369326171875,69.68920300598144C239.15416326171874,71.06770300598144,236.24235326171876,71.14090300598144,233.82408326171876,69.88220300598144L233.81053326171875,69.88230300598144ZM239.49062326171875,66.51310300598145C240.01029326171874,66.23690300598145,240.42959326171876,65.80870300598144,240.69039326171875,65.28790300598145C240.96699326171876,64.68910300598145,241.09259326171875,64.03360300598145,241.05639326171874,63.37700300598144C241.05249326171875,62.72930300598144,240.88979326171875,62.09200300598145,240.58189326171876,61.51930300598144C240.29499326171876,61.011703005981445,239.85434326171875,60.60450300598144,239.32115326171876,60.35410300598144C238.71892326171874,60.081903005981445,238.05808326171876,59.958403005981445,237.39616326171875,59.99450300598144C236.73974326171876,59.99400300598145,236.09385326171875,60.156603005981445,235.51861326171874,60.467203005981446C235.00166326171876,60.746903005981444,234.58330326171875,61.17410300598144,234.31888326171875,61.69240300598145C234.04148326171875,62.27480300598145,233.91126326171874,62.914303005981445,233.93930326171875,63.55680300598144C233.93881326171876,64.21270300598144,234.09923326171875,64.85900300598145,234.40700326171876,65.44110300598145C234.68886326171875,65.95100300598145,235.12455326171875,66.36270300598144,235.65418326171874,66.61960300598145C236.88748326171876,67.13310300598144,238.28674326171875,67.09670300598145,239.49062326171875,66.51980300598144L239.49062326171875,66.51310300598145Z" fill="#000000" fill-opacity="1"/></g><g><path d="M250.02386683984375,66.30002689709472C250.45472083984376,65.88854089709473,251.03635583984374,65.66526889709472,251.63705583984375,65.68079329709472L251.69805583984376,65.68079329709472C252.29751583984375,65.61899799709472,252.89739583984374,65.79386289709473,253.36547583984375,66.16685789709473C253.78805583984376,66.57730689709473,254.01871583984376,67.14136389709472,254.00262583984374,67.72492389709473L254.00262583984374,67.77819389709472C254.06558583984375,68.36018389709473,253.87892583984376,68.94165389709472,253.48747583984374,69.38287389709473C253.05048583984376,69.78910389709472,252.46908583984376,70.01134389709473,251.86749583984374,70.00211389709473L251.81329583984376,70.00211389709473C251.21292583984376,70.06205389709473,250.61295583984375,69.88476389709473,250.14586883984376,69.50938389709472C249.72120083984376,69.10029389709473,249.49015646984375,68.53530389709472,249.50873183984376,67.95131389709472L249.50873183984376,67.89138389709473C249.44963403984374,67.31384389709473,249.63604983984376,66.73796389709473,250.02386683984375,66.30002689709472Z" fill="#000000" fill-opacity="1"/></g><g><path d="M264.8001889794922,68.93007535705567C264.4075789794922,69.30577535705567,263.8772089794922,69.50987535705566,263.3293189794922,69.49607535705566L263.26831897949216,69.49607535705566C262.72443897949216,69.56077535705566,262.1770289794922,69.40707535705566,261.7500189794922,69.06997535705567C261.3646089794922,68.70207535705566,261.15326897949217,68.19267535705566,261.1671089794922,67.66497535705567L260.3876289794922,51.75803535705566L259.3708989794922,51.811305357055666C258.8516389794922,51.869815357055664,258.3304769794922,51.71839535705566,257.9271549794922,51.391825357055666C257.5562269794922,51.03238535705567,257.35268418249217,50.53854535705567,257.3645781794922,50.02684535705566L257.3645781794922,49.97358535705566C257.3072179794922,49.467775357055665,257.4613229794922,48.960765357055664,257.7916049794922,48.56865535705566C258.1611889794922,48.20634835705567,258.66596897949216,48.008965357055665,259.18789897949216,48.022665357055665L261.3094689794922,47.922789557055665C262.09229897949217,47.830719557055666,262.8797089794922,48.05412235705566,263.4920289794922,48.542022357055664C264.0577689794922,49.096825357055664,264.3686489794922,49.854305357055665,264.3528289794922,50.639425357055664C264.70527897949216,57.38440535705566,264.88151897949217,60.760175357055665,265.24075897949217,67.50517535705566C265.2945389794922,68.01897535705567,265.1357589794922,68.53247535705566,264.8001889794922,68.93007535705567Z" fill="#000000" fill-opacity="1"/></g><g><path d="M297.74201052246093,55.63989575415039C298.10811052246095,55.97054975415039,298.3170105224609,56.43642175415039,298.3181105224609,56.92497175415039L298.3181105224609,56.98490175415039C298.38661052246096,57.45723175415039,298.2597105224609,57.936821754150394,297.96571052246094,58.31658175415039C297.61491052246095,58.68564175415039,297.1241105224609,58.89537175415039,296.61011052246096,58.89586175415039Q283.67061052246095,59.96121175415039,270.73109052246093,60.68032175415039C270.23392052246095,60.74022175415039,269.73312752246096,60.60103175415039,269.3415765224609,60.29413175415039C268.98394852246093,59.95656175415039,268.7830327224609,59.48960175415039,268.78576322246096,59.00240175415039L268.78576322246096,58.94913175415039C268.72927172246096,58.46919175415039,268.87636452246096,57.98758175415039,269.19245652246093,57.61745175415039C269.55378652246094,57.26993175415039,270.0425405224609,57.08029175415039,270.54808052246096,57.09143175415039Q283.4266105224609,56.36566175415039,296.35931052246093,55.32029205415039C296.84501052246094,55.244827854150394,297.3415105224609,55.35958435415039,297.74201052246093,55.63989575415039Z" fill="#000000" fill-opacity="1"/></g><g><path d="M300.5075288339844,57.85716135787964C300.65474583398435,57.20646135787964,300.88236683398435,56.57586135787964,301.18534383398435,55.97946135787964C303.1171148339844,52.07764135787964,304.0796048339844,50.12007135787964,305.9707148339844,46.20492135787964C306.17144483398437,45.754531357879635,306.49227483398437,45.36575035787964,306.89931483398436,45.07964435787964C307.3236148339844,44.808734357879636,307.81112483398437,44.64833905787964,308.31594483398436,44.61355525787964L308.40406483398436,44.61355525787964C309.0266048339844,44.46471635787964,309.68112483398437,44.67645835787964,310.09181483398436,45.15954535787964C310.40800483398436,45.700361357879636,310.38700483398435,46.37003135787964,310.03760483398435,46.89073135787964C308.0041548339844,51.17210135787964,306.9332148339844,53.30945135787964,304.81842483398435,57.57746135787964C304.65879483398436,57.87806135787964,304.5489748339844,58.20176135787964,304.49306483398436,58.53636135787964C304.4411848339844,58.92086135787964,304.4411848339844,59.31036135787964,304.49306483398436,59.69486135787964L300.42617383398436,60.04116135787964C300.34610113398435,59.31306135787964,300.3735091339844,58.57746135787964,300.5075288339844,57.85716135787964ZM304.73032483398435,66.01376135787964C303.5245348339844,65.48816135787965,302.4833048339844,64.65606135787964,301.7140348339844,63.603361357879635C300.9377198339844,62.55826135787964,300.4687648339844,61.323661357879644,300.35840883398436,60.034461357879636C300.23756553398437,58.79286135787964,300.48721583398435,57.54356135787964,301.07689083398435,56.438961357879634C301.66642483398437,55.34596135787964,302.5413448339844,54.42669135787964,303.6119148339844,53.77554135787964C305.8907048339844,52.409911357879636,308.68666483398437,52.163801357879635,311.1763048339844,53.109701357879636C312.3493048339844,53.55029135787964,313.3828048339844,54.28765135787964,314.17230483398436,55.24706135787964C314.9546048339844,56.22576135787964,315.4262048339844,57.40916135787964,315.5279048339844,58.64946135787964C315.66440483398435,59.93676135787964,315.42950483398437,61.23586135787964,314.85010483398435,62.39816135787964C314.29860483398437,63.55646135787964,313.4480048339844,64.55276135787963,312.3828048339844,65.28796135787964C310.13008483398437,66.81446135787964,307.2309848339844,67.07936135787963,304.73030483398435,65.98706135787964L304.73032483398435,66.01376135787964ZM310.1528348339844,62.27836135787964C310.6552048339844,61.960361357879634,311.0420048339844,61.494161357879634,311.25770483398435,60.946661357879634C311.49750483398435,60.33206135787964,311.57900483398436,59.66876135787964,311.4949048339844,59.01576135787964C311.4498048339844,58.36806135787964,311.2426048339844,57.74136135787964,310.8916048339844,57.19136135787964C310.5648048339844,56.70216135787964,310.09098483398435,56.32516135787964,309.53602483398436,56.11266135787964C308.91604483398436,55.88256135787964,308.24824483398436,55.80486135787964,307.5907048339844,55.88626135787964C306.93563483398435,55.92546135787964,306.3013448339844,56.12696135787964,305.7470448339844,56.47216135787964C305.2490648339844,56.79666135787964,304.8617748339844,57.26066135787964,304.6354148339844,57.80386135787964C304.3910848339844,58.40106135787964,304.3047848339844,59.04936135787964,304.3846248339844,59.68826135787964C304.42351483398437,60.344361357879635,304.6285448339844,60.98066135787964,304.9811048339844,61.53926135787964C305.30444483398435,62.03566135787964,305.7822748339844,62.41636135787964,306.34352483398436,62.62456135787964C306.96445483398435,62.86026135787964,307.6347548339844,62.94256135787964,308.29563483398437,62.86426135787964C308.96235483398436,62.81966135787964,309.6085048339844,62.618761357879634,310.17993483398436,62.27836135787964L310.1528348339844,62.27836135787964Z" fill="#000000" fill-opacity="1"/></g><g><path d="M320.6792759296875,61.36614028149414C321.0815629296875,60.92284628149414,321.6480329296875,60.65660528149414,322.2518129296875,60.62705508149414L322.3060229296875,60.62705508149414C322.8997529296875,60.52780008149414,323.5093129296875,60.66432178149414,324.0005629296875,61.00658428149414C324.4488929296875,61.38633028149414,324.7185329296875,61.93049228149414,324.7461629296875,62.51138228149414L324.7461629296875,62.571312281494144C324.8455929296875,63.14592228149414,324.7010929296875,63.73547228149414,324.3462529296875,64.20262228149414C323.9364629296875,64.63780228149415,323.3696429296875,64.89828228149415,322.7669529296875,64.92839228149414L322.7059529296875,64.92839228149414C322.1090629296875,65.02986228149415,321.4957229296875,64.89063228149413,321.0046339296875,64.54220228149414C320.5552679296875,64.16041228149415,320.2856351296875,63.61379228149414,320.2590338296875,63.03074228149414L320.2590338296875,62.977472281494144C320.1702941296875,62.40657228149414,320.3220205296875,61.82479228149414,320.6792759296875,61.36614028149414Z" fill="#000000" fill-opacity="1"/></g><g><path d="M333.3137563574219,63.78319605178833L333.2527563574219,63.78319605178833C332.6534963574219,63.92199605178833,332.0236763574219,63.74849605178833,331.58533635742185,63.32369605178833C331.2266263574219,62.84309605178833,331.15683635742187,62.21079605178833,331.4023263574219,61.665796051788334C333.48322635742187,55.17379605178833,334.4931663574219,51.92449605178833,336.48593635742185,45.42588605178833C333.5916763574219,45.772126051788334,332.14114635742186,45.93858605178833,329.2401063574219,46.26484605178833C328.7259663574219,46.35822605178833,328.1952863574219,46.24291605178833,327.76923435742185,45.94523605178833C327.36549935742187,45.61256605178833,327.1200898574219,45.13044605178833,327.09142015742185,44.61355605178833L327.09142015742185,44.57360605178833C326.9981296574219,44.07187605178833,327.11816615742185,43.55451605178833,327.42354235742187,43.14204605178833C327.7671253574219,42.75159605178833,328.25506635742187,42.51193605178833,328.7791763574219,42.47620605178833C332.78505635742187,42.03008805178833,334.79138635742186,41.81036005178833,338.7905163574219,41.30431995178833C339.3147163574219,41.20878555178833,339.8564163574219,41.288486751788334,340.32911635742187,41.53070605178833C340.7228163574219,41.76428505178833,340.9758163574219,42.17186605178833,341.00691635742186,42.62268605178833L341.00691635742186,42.67595605178833C341.05941635742187,43.05094605178833,341.07301635742186,43.43019605178833,341.0476163574219,43.80788605178833C341.0054163574219,44.18303605178833,340.9260163574219,44.55323605178833,340.81031635742187,44.91318605178833C338.7294163574219,51.73809605178833,337.6653163574219,55.15379605178833,335.4895063574219,61.97209605178833C335.2477663574219,62.979596051788334,334.36514635742185,63.71429605178833,333.3137563574219,63.78319605178833Z" fill="#000000" fill-opacity="1"/></g><g><path d="M83.9999534765625,56.718543945312504C83.4102534765625,58.2300439453125,82.7731134765625,59.7081439453125,82.1156334765625,61.1397439453125C81.4581534765625,62.5713439453125,80.8752334765625,63.6832439453125,80.4617634765625,64.4689439453125C80.0959834765625,65.4103439453125,78.9329334765625,65.7716439453125,78.0826334765625,65.2080439453125L77.9674034765625,65.1348439453125C76.9371281865625,64.6221439453125,76.6727804765625,63.8430439453125,77.2150324765625,62.8110439453125Q78.9231234765625,59.5816439453125,80.6041034765625,55.540043945312505C80.8414334765625,54.5750439453125,81.9392434765625,54.0866439453125,82.8341134765625,54.5479439453125L82.9561234765625,54.5479439453125C84.0406234765625,54.9673439453125,84.3930834765625,55.6931439453125,83.9999534765625,56.718543945312504ZM84.0745134765625,40.5985239453125C84.3591934765625,41.5972939453125,84.5015434765625,42.0966739453125,84.7930034765625,43.0954339453125C85.2188234765625,43.9954239453125,84.6295334765625,45.0421239453125,83.6271534765625,45.1662039453125L83.5051534765625,45.2061539453125C82.5685934765625,45.6200339453125,81.4900234765625,45.0336339453125,81.3497034765625,44.0342739453125C81.0650134765625,43.0355139453125,80.9226734765625,42.5361239453125,80.6718834765625,41.5373639453125C80.26758347656249,40.6472639453125,80.8311634765625,39.6224019453125,81.8106134765625,39.4665969453125L81.9326234765625,39.4266459453125C82.8657634765625,39.0178209453125,83.9370634765625,39.6039539453125,84.0745134765625,40.5985239453125ZM83.1391334765625,48.1358639453125C83.4238134765625,49.1412839453125,83.5729334765625,49.6406439453125,83.8576134765625,50.6394439453125C84.1422934765625,51.6381439453125,83.8101634765625,52.3905439453125,82.6917734765625,52.703543945312504L82.5629834765625,52.7501439453125C81.6209534765625,53.1628439453125,80.5387734765625,52.5748439453125,80.3939834765625,51.5716439453125L79.7161634765625,49.074693945312504C79.3029434765625,48.174443945312504,79.8918634765625,47.1377839453125,80.8887834765625,47.0105839453125L81.0040134765625,46.9639739453125C81.9346434765625,46.5737839453125,82.9895834765625,47.1527939453125,83.1391334765625,48.1358639453125ZM106.8626634765625,51.3984439453125L106.8626634765625,51.5116439453125C106.9027634765625,52.4833439453125,105.9778634765625,53.2182439453125,105.0189634765625,52.9765439453125C98.1459634765625,52.3106439453125,94.7161634765625,51.9311439453125,87.8567634765625,51.1388439453125C86.8818134765625,51.1413439453125,86.1716134765625,50.2321439453125,86.4265334765625,49.3077439453125L86.4265334765625,49.1878839453125C86.4105134765625,48.218383945312496,87.3442634765625,47.5038339453125,88.2972634765625,47.7563239453125C95.10936347656249,48.5619939453125,98.53226347656249,48.9282139453125,105.4053634765625,49.6073439453125C106.37816347656249,49.5807439453125,107.11106347656249,50.469143945312496,106.88296347656251,51.3984439453125L106.8626634765625,51.3984439453125ZM104.7275634765625,42.2298439453125C105.1981634765625,42.1960739453125,105.6652634765625,42.3309039453125,106.0424634765625,42.6093739453125C106.3620634765625,42.9302539453125,106.5335634765625,43.3659239453125,106.5169634765625,43.8145439453125L106.5169634765625,43.9277339453125C106.7332634765625,44.8815439453125,105.9167634765625,45.7555239453125,104.93086347656251,45.6256339453125C102.0569634765625,45.6499339453125,99.1842634765625,45.4987239453125,96.32936347656249,45.1728639453125C93.6994634765625,44.8865539453125,92.3980634765625,44.746723945312496,89.8155634765625,44.4470939453125C88.8308634765625,44.4885839453125,88.0816634765625,43.5893739453125,88.3176634765625,42.6493239453125L88.3176634765625,42.5294739453125C88.29816347656251,41.5643539453125,89.2252634765625,40.8497539453125,90.1748634765625,41.0979139453125C92.7708634765625,41.3975339453125,94.0722634765625,41.5440239453125,96.6750634765625,41.8236739453125C99.3489634765625,42.1121839453125,102.0376634765625,42.2478039453125,104.7275634765625,42.2298439453125ZM90.3578634765625,54.8808439453125C94.9330634765625,55.3935439453125,97.2173634765625,55.639943945312496,101.79256347656249,56.105943945312504Q104.9850634765625,56.4255439453125,104.6732634765625,59.5017439453125C104.4292634765625,61.8522439453125,104.3072634765625,63.0240439453125,104.0700634765625,65.3745439453125Q103.75146347656249,68.4640439453125,100.52506347656251,68.1310439453125C95.8955634765625,67.6650439453125,93.5842634765625,67.4119439453125,88.9547634765625,66.8926439453125C86.8061034765625,66.6529439453125,85.8503934765625,65.5010439453125,86.1011834765625,63.4502439453125C86.3790834765625,61.1064439453125,86.5214234765625,59.9345439453125,86.7789934765625,57.5908439453125C87.0365634765625,55.5533439453125,88.2227634765625,54.6344439453125,90.3510634765625,54.8941439453125L90.3578634765625,54.8808439453125ZM101.01306347656251,59.4285439453125C96.7631634765625,58.9957439453125,94.6348634765625,58.762643945312504,90.3849634765625,58.2899439453125L89.7749634765625,63.5767439453125C94.0451634765625,64.0561439453125,96.1802634765625,64.2825439453125,100.4572634765625,64.7219439453125C100.6606634765625,62.624543945312496,100.7826634765625,61.5592439453125,101.0063634765625,59.4418439453125L101.01306347656251,59.4285439453125ZM98.97966347656251,45.4458539453125C98.53226347656249,49.5474439453125,98.3018634765625,51.598243945312504,97.8544634765625,55.6998439453125C97.89186347656249,56.7159439453125,96.9136634765625,57.4752439453125,95.9159634765625,57.2046439453125L95.7939634765625,57.2046439453125C94.7482634765625,57.2601439453125,93.9554634765625,56.2916439453125,94.2349634765625,55.3003439453125L95.3872634765625,45.0530139453125C95.3586634765625,44.0504639453125,96.3175634765625,43.3015139453125,97.3054634765625,43.5548639453125L97.4206634765625,43.5548639453125C98.4599634765625,43.5038639453125,99.2448634765625,44.4677039453125,98.9660634765625,45.4525139453125L98.97966347656251,45.4458539453125Z" fill="url(#master_svg3_26_04023)" fill-opacity="1"/></g><g><path d="M121.7271231262207,54.84755699234009L121.7271231262207,54.967356992340086C121.7781231262207,55.954456992340084,120.8477231262207,56.71165699234009,119.8699231262207,56.478856992340084C116.14870312622071,56.165956992340085,114.2914931262207,55.999456992340086,110.5702931262207,55.65325699234009C109.5626731262207,55.70645699234009,108.7858621262207,54.79345699234009,109.0180961262207,53.82875699234009L109.0180961262207,53.71561699234009C108.98013312622071,52.729706992340084,109.9134631262207,51.98227699234009,110.8888631262207,52.217466992340086C114.5965131262207,52.56370699234009,116.45372312622071,52.73016699234009,120.16132312622071,53.043106992340086C121.16392312622071,52.98419699234009,121.94512312622071,53.88445699234009,121.7271231262207,54.84755699234009ZM122.0118231262207,46.64436699234009L122.0118231262207,46.75756699234009C122.0649231262207,47.74032699234009,121.1439231262207,48.49872699234009,120.1681231262207,48.275686992340084C116.81296312622071,47.98936699234009,115.1319831262207,47.83622699234009,111.7768031262207,47.52993699234009C110.7755931262207,47.578746992340086,110.00664312622071,46.67030699234009,110.2381631262207,45.71219699234009L110.2381631262207,45.59233699234009C110.2104931262207,44.61897599234009,111.1317931262207,43.885705992340085,112.09537312622071,44.11417199234009C115.4370031262207,44.42711799234009,117.1112031262207,44.573602992340085,120.4596231262207,44.85991699234009C121.4488231262207,44.807816992340086,122.2185231262207,45.69265699234009,122.0118231262207,46.64436699234009ZM116.1215931262207,56.83175699234009C114.6371831262207,60.06775699234009,113.89158312622071,61.68575699234009,112.38683312622071,64.91505699234008C114.09493312622071,65.07485699234009,114.9557531262207,65.14815699234009,116.6638531262207,65.29455699234009L116.7994131262207,63.816456992340086C116.75637312622071,62.80645699234009,117.7113231262207,62.03805699234009,118.7108231262207,62.278356992340086L118.82612312622071,62.278356992340086C119.8524231262207,62.210856992340084,120.6581231262207,63.12875699234009,120.4393231262207,64.11605699234009C120.3782231262207,64.84845699234009,120.31722312622071,65.20805699234009,120.31722312622071,65.95375699234009C120.3068231262207,66.8143569923401,119.9367231262207,67.63295699234008,119.2937231262207,68.2176569923401C118.5670231262207,68.72515699234009,117.6659531262207,68.93095699234009,116.7858531262207,68.79025699234009C114.6914031262207,68.61045699234009,113.6407931262207,68.5172569923401,111.5463431262207,68.3241569923401Q109.3231131262207,68.12445699234009,108.6181871262207,66.9924569923401C108.1504961262207,66.25345699234009,108.23183332622071,65.22135699234009,108.8757581262207,63.88965699234009C110.4686231262207,60.507156992340086,111.2548831262207,58.81595699234009,112.8274131262207,55.42685699234009C113.1307731262207,54.46425699234009,114.2703531262207,54.03345699234009,115.15232312622071,54.54795699234009L115.2675531262207,54.62115699234009C116.2401931262207,54.88445699234009,116.6714831262207,56.00085699234009,116.1215931262207,56.83175699234009ZM129.5965231262207,45.59899699234009C129.2915231262207,49.50083699234009,129.1356231262207,51.45174699234009,128.8238231262207,55.35355699234009C128.6423231262207,57.95505699234009,128.1439231262207,60.52585699234009,127.33942312622071,63.01075699234009C126.5493231262207,65.32785699234009,125.3794231262207,67.5027569923401,123.87582312622071,69.44945699234009C123.36772312622071,70.34465699234009,122.1069231262207,70.46815699234008,121.4289231262207,69.68915699234009L121.3136231262207,69.6225569923401C120.45072312622071,69.07005699234008,120.3288231262207,67.87545699234009,121.0628231262207,67.16565699234009C122.3195231262207,65.51335699234009,123.2947231262207,63.67165699234009,123.9503231262207,61.71235699234009C124.6373231262207,59.54945699234009,125.0628231262207,57.31455699234009,125.21782312622071,55.05395699234009C125.54322312622071,51.17209699234009,125.7398231262207,49.22117699234009,126.02442312622071,45.31268699234009C125.9685231262207,44.31636299234009,126.8972231262207,43.543413992340085,127.8884231262207,43.761276292340085L128.0104231262207,43.761276292340085C129.0336231262207,43.694239792340085,129.8312231262207,44.61839099234009,129.5965231262207,45.59899699234009ZM135.7714231262207,49.06803699234009C136.33282312622072,49.767806992340084,136.5778231262207,50.66299699234009,136.44922312622072,51.544966992340086C135.9748231262207,58.07685699234009,135.7714231262207,61.33945699234009,135.2698231262207,67.86475699234009C135.2691231262207,68.75255699234009,134.8994231262207,69.6015569923401,134.24632312622072,70.21515699234008C133.5069231262207,70.77005699234009,132.5715231262207,71.00995699234008,131.6503231262207,70.88105699234009L130.09132312622071,70.76785699234009C128.8509231262207,70.67455699234009,128.2816231262207,70.03535699234008,128.3697231262207,68.85015699234009L128.3697231262207,68.73695699234008Q128.4985231262207,66.95925699234009,130.3625231262207,67.09905699234008L131.63672312622072,67.19225699234009C132.1044231262207,61.01325699234009,132.3146231262207,57.92375699234009,132.8094231262207,51.751376992340084C129.4203231262207,51.498356992340085,127.6851231262207,51.36519699234009,124.2689231262207,51.08553699234009C123.1958231262207,51.15639699234009,122.3563231262207,50.19150699234009,122.5947231262207,49.161256992340086L122.5947231262207,49.041406992340086C122.5344231262207,47.98844699234009,123.52222312622071,47.17478699234009,124.56712312622071,47.41674699234009C128.0714231262207,47.70306699234009,129.8270231262207,47.83622699234009,133.3381231262207,48.082596992340086C134.2502231262207,48.08083699234009,135.12562312622072,48.43534699234009,135.7714231262207,49.06803699234009Z" fill="url(#master_svg4_26_04024)" fill-opacity="1"/></g><g><path d="M143.70186475585936,45.978532092791745L148.16866475585937,46.251526892791745C150.2766247558594,46.37803689279175,151.26622475585938,47.463355892791746,151.15102475585937,49.527465892791746C150.73762475585937,56.618665892791746,150.53422475585938,60.18096589279175,150.12752475585938,67.25886589279175Q149.94452475585936,70.35496589279174,146.7384747558594,70.16856589279175L142.17000475585937,69.88896589279175Q138.93682875585938,69.68246589279175,139.14694965585937,66.55966589279174C139.63497675585938,59.46846589279175,139.87221075585938,55.90623589279175,140.36023475585938,48.834995892791746C140.47546475585938,46.790858892791746,141.59386475585939,45.832046892791745,143.70186475585936,45.978532092791745ZM148.8939247558594,58.23666589279175L148.8939247558594,58.34986589279175C148.9871347558594,59.367965892791744,148.04609475585937,60.18146589279175,147.0299347558594,59.96116589279175L143.10539475585938,59.72146589279175C142.08648475585937,59.80816589279175,141.26893475585936,58.90836589279175,141.47185475585937,57.92376589279175L141.47185475585937,57.80386589279175C141.36609475585936,56.76916589279175,142.33514475585937,55.943475892791746,143.36295475585936,56.19256589279175L147.27394475585936,56.43226589279175C148.28152475585938,56.36216589279175,149.08334475585937,57.24866589279175,148.8939247558594,58.22336589279175L148.8939247558594,58.23666589279175ZM147.66030475585939,49.73387589279175L143.76965475585936,49.50083589279175C143.36295475585936,56.25246589279175,143.11216475585937,59.628265892791745,142.68514475585937,66.39326589279175L146.63680475585937,66.63296589279174C147.03671475585938,59.867965892791744,147.24683475585937,56.48556589279175,147.66029475585938,49.72056589279175L147.66030475585939,49.73387589279175ZM167.31692475585936,51.591575892791745L167.31692475585936,51.704775892791744C167.41672475585938,52.72141589279175,166.49462475585938,53.54728589279175,165.47322475585938,53.356055892791744C160.84382475585937,53.162965892791746,158.52562475585938,53.04977589279175,153.89622475585938,52.80341589279175C152.86082475585937,52.89916589279175,152.02442475585937,51.987285892791746,152.2287247558594,50.98566589279175L152.2287247558594,50.87246589279175C152.13982475585937,49.85741589279175,153.06982475585937,49.04386589279175,154.08602475585937,49.24781589279175C158.70192475585938,49.494175892791745,161.00642475585937,49.60071589279175,165.60882475585936,49.793805892791745C166.63312475585937,49.69558589279175,167.47152475585938,50.582015892791745,167.29662475585937,51.57826589279175L167.31692475585936,51.591575892791745ZM156.98702475585938,57.61746589279175L157.83432475585937,63.51016589279175C158.11782475585937,64.46246589279176,157.38012475585938,65.41196589279176,156.37022475585937,65.39446589279174L156.24142475585938,65.39446589279174C155.25732475585937,65.69756589279174,154.2586247558594,64.96926589279175,154.26902475585936,63.95626589279175C153.93012475585937,61.59256589279175,153.76742475585937,60.41396589279175,153.43532475585937,58.05686589279175C153.16562475585937,57.11346589279175,153.88822475585937,56.17806589279175,154.88582475585937,56.17926589279175L155.00782475585936,56.17926589279175C155.98072475585937,55.89562589279175,156.9590247558594,56.60716589279175,156.9667247558594,57.60416589279175L156.98702475585938,57.61746589279175ZM165.12082475585936,47.876185892791746L164.15832475585938,69.52936589279174C164.18402475585938,70.40826589279175,163.84372475585937,71.25946589279175,163.21612475585937,71.88646589279175C162.49772475585937,72.45486589279174,161.5771247558594,72.71626589279175,160.66082475585938,72.61216589279175L159.01372475585939,72.53896589279175C157.79362475585938,72.47906589279175,157.21072475585936,71.87316589279175,157.26492475585937,70.69456589279174L157.26492475585937,70.54806589279175C157.32592475585938,69.38286589279176,157.9427247558594,68.83026589279174,159.18312475585938,68.88346589279175L160.53882475585937,68.95006589279174Q161.0471247558594,58.29656589279175,161.54872475585938,47.70306589279175C161.45442475585938,46.70682189279175,162.35762475585938,45.89925219279175,163.35852475585938,46.08506689279175L163.48052475585936,46.08506689279175C164.49462475585938,45.99239529279175,165.31672475585938,46.87972689279175,165.1276247558594,47.862865892791746L165.12082475585936,47.876185892791746Z" fill="url(#master_svg5_26_04025)" fill-opacity="1"/></g><g><path d="M173.6138374633789,54.38811415679932C173.3698274633789,61.31288415679931,173.2478274633789,64.77528415679932,172.9970274633789,71.69998415679932C172.9563574633789,72.81198415679931,172.3598774633789,73.34458415679931,171.19403746337892,73.30468415679931L171.0720374633789,73.30468415679931C170.0667334633789,73.42608415679932,169.2267574633789,72.56088415679932,169.3978344633789,71.58018415679932L170.0756494633789,54.26826415679932C169.9557154633789,53.28371415679932,170.8371374633789,52.464664156799316,171.8311874633789,52.63695415679932L171.9531874633789,52.63695415679932C172.96891746337892,52.51405415679932,173.81052746337892,53.40152415679932,173.6138374633789,54.38811415679932ZM175.8302974633789,47.47667415679932C176.14209746337892,48.26902415679932,176.29799746337892,48.661874156799314,176.6030074633789,49.47420415679932C177.07197746337891,50.34245415679932,176.5545974633789,51.40907415679931,175.5727274633789,51.598234156799315L175.4507274633789,51.658164156799316C174.55936746337892,52.116924156799314,173.4690874633789,51.60802415679932,173.2681474633789,50.639424156799315L172.5089974633789,48.64189415679932C172.04074746337892,47.771924156799315,172.5569774633789,46.704333156799315,173.5392874633789,46.511204156799316L173.6612874633789,46.45793715679932C174.5492574633789,46.004475156799316,175.6320474633789,46.51304115679932,175.8302974633789,47.47667415679932ZM179.37526746337892,53.808834156799314C182.4457874633789,53.90204415679932,183.9843874633789,53.93534415679932,187.05488746337892,54.008584156799316Q190.14568746337892,54.068504156799314,190.08478746337892,57.07808415679932C190.0101874633789,60.82678415679932,189.9762874633789,62.70448415679932,189.9016874633789,66.45318415679932C189.8610874633789,68.45068415679931,188.7968874633789,69.44278415679932,186.7091874633789,69.39618415679931C183.5844874633789,69.32958415679931,182.0254874633789,69.28968415679932,178.9075774633789,69.19648415679931Q175.7760674633789,69.10988415679932,175.87096746337892,66.09358415679932C175.9997474633789,62.34488415679932,176.0607474633789,60.473884156799315,176.1827674633789,56.725184156799315Q176.2844274633789,53.722274156799315,179.37526746337892,53.808834156799314ZM188.27498746337892,61.65908415679932L188.27498746337892,61.772284156799316C188.3851874633789,62.69078415679932,187.5614874633789,63.45318415679932,186.6346874633789,63.29038415679932C183.6996874633789,63.223884156799315,182.23558746337892,63.19058415679932,179.30747746337892,63.103984156799314C178.3760274633789,63.21348415679932,177.5975374633789,62.415484156799316,177.7485074633789,61.505984156799315L177.7485074633789,61.392784156799316C177.65337746337892,60.478584156799315,178.4743174633789,59.728584156799315,179.39558746337892,59.88798415679932C182.3169874633789,59.97448415679932,183.7742874633789,60.01448415679931,186.7023874633789,60.07438415679932C187.63268746337891,59.957384156799314,188.41778746337891,60.74858415679932,188.27498746337892,61.65908415679932ZM195.5953874633789,48.588634156799316C196.1674874633789,49.22076415679932,196.44948746337892,50.05642415679932,196.3748874633789,50.89910415679932Q196.2324874633789,60.78688415679932,196.10368746337892,70.67458415679931C196.1525874633789,71.51068415679931,195.84858746337892,72.32958415679931,195.2632874633789,72.93848415679932C194.5935874633789,73.50078415679931,193.7204874633789,73.77218415679931,192.8434874633789,73.69088415679931L191.3115874633789,73.69088415679931C190.3256874633789,73.82188415679931,189.4881874633789,72.98578415679931,189.6373874633789,72.01958415679931L189.6373874633789,71.90638415679932C189.52828746337892,70.93768415679932,190.39478746337892,70.13638415679932,191.37258746337892,70.30178415679931L192.5044874633789,70.30178415679931L192.8434874633789,51.16544415679932C187.8072874633789,51.085544156799315,185.2857874633789,51.025614156799314,180.2496874633789,50.88578415679932C179.2714374633789,50.99701415679932,178.45826746337892,50.154934156799314,178.6228974633789,49.201204156799314L178.6228974633789,49.081354156799314C178.5183974633789,48.12246415679932,179.3772874633789,47.331914156799314,180.3444874633789,47.496654156799316C185.5230874633789,47.64313415679932,188.1122874633789,47.69640415679932,193.2907874633789,47.782964156799316C194.1372874633789,47.741034156799316,194.9660874633789,48.03079415679932,195.5953874633789,48.588634156799316ZM186.64818746337892,57.33118415679932C183.8284874633789,57.264584156799316,182.41868746337892,57.23128415679932,179.6056874633789,57.15138415679932C179.4972874633789,60.640384156799314,179.4498874633789,62.384884156799316,179.3413874633789,65.88058415679932C182.1881874633789,65.96048415679931,183.6047874633789,66.00038415679931,186.4448874633789,66.06028415679931L186.64818746337892,57.33118415679932Z" fill="url(#master_svg6_26_04026)" fill-opacity="1"/></g><g><path d="M204.36627925439453,55.85296664819336C204.80938825439452,55.45897764819336,205.39681825439453,55.25941174819336,205.99302825439455,55.30031825819336L206.05402825439452,55.30031825819336C206.64943825439454,55.26792204819336,207.23312825439453,55.47184564819336,207.67400825439452,55.86628464819336C208.07712825439452,56.29270464819336,208.28314825439452,56.86370064819336,208.24336825439454,57.44433064819336L208.24336825439454,57.49760064819336C208.27729825439454,58.07863064819336,208.06934825439453,58.64825064819336,207.66721825439453,59.07564064819336C207.22081825439454,59.46866064819336,206.63176825439453,59.66794064819336,206.03368825439452,59.62829064819336L205.97268825439454,59.62829064819336C205.37508825439454,59.66175064819336,204.78888825439452,59.457800648193356,204.34593525439453,59.06233064819336C203.94455825439454,58.63523064819336,203.74093225439452,58.06405064819336,203.78334725439453,57.48428064819336L203.78334725439453,57.42435064819336C203.74910285439452,56.84405064819336,203.95998925439454,56.27556764819336,204.36627925439453,55.85296664819336ZM204.29849325439454,67.01247064819336C204.74892825439454,66.61777064819336,205.34376825439452,66.42057064819336,205.94557825439452,66.46647064819336L206.00657825439453,66.46647064819336C206.60572825439453,66.42787064819336,207.19519825439454,66.62967064819335,207.64011825439454,67.02577064819336C208.04783825439452,67.44987064819335,208.25669825439454,68.02187064819336,208.21625825439452,68.60387064819336L208.21625825439452,68.66377064819336C208.25297825439452,69.24437064819335,208.04173825439455,69.81387064819336,207.63333825439454,70.23517064819336C207.18198825439453,70.62897064819336,206.58851825439453,70.82807064819336,205.98625825439453,70.78777064819336L205.92525825439452,70.78777064819336C205.32348825439453,70.82187064819335,204.73284825439453,70.61807064819337,204.28494425439453,70.22187064819336C203.86182725439454,69.79527064819337,203.64473535439453,69.21117064819336,203.68846404439452,68.61717064819337C203.64022605439453,68.02617064819336,203.84964325439452,67.44297064819335,204.26461025439454,67.01247064819336L204.29849325439454,67.01247064819336Z" fill="url(#master_svg7_26_04027)" fill-opacity="1"/></g><g><path d="M230.15710926171874,61.46600300598145C230.33756726171876,60.83010300598144,230.59469526171875,60.217603005981445,230.92304326171876,59.641603005981445C233.11916326171874,55.87294300598145,234.20366326171876,53.981953005981445,236.34556326171875,50.19997300598145C236.57640326171875,49.76451300598144,236.92308326171874,49.39864500598144,237.34872326171876,49.14128000598144C237.78686326171874,48.897094005981444,238.28195326171874,48.76862640598144,238.78568326171876,48.76840800598144L238.88058326171875,48.76840800598144C239.51309326171875,48.67091250598145,240.14819326171875,48.92766400598145,240.52769326171875,49.43425000598145C240.80219326171874,49.99617300598145,240.73419326171876,50.661683005981445,240.35139326171875,51.15878300598145C238.00619326171875,55.29366300598144,236.82001326171874,57.35777300598144,234.42733326171876,61.47930300598144C234.24748326171874,61.76800300598144,234.11483326171876,62.082503005981444,234.03420326171874,62.411503005981444C233.95004326171875,62.791903005981446,233.91362326171875,63.181003005981445,233.92574326171876,63.570103005981444L229.85885861671875,63.650003005981446C229.84823673171874,62.911503005981444,229.94873606171876,62.17560300598144,230.15710926171874,61.46600300598145ZM233.81053326171875,69.88230300598144C232.64429326171876,69.28200300598144,231.66347326171876,68.38520300598145,230.97048326171875,67.28550300598144C230.27244026171874,66.19080300598145,229.89487166171875,64.92830300598145,229.87920256171876,63.636703005981445C229.84223796171875,62.38900300598144,230.17673926171875,61.157903005981446,230.84169826171876,60.09440300598145C231.50480326171876,59.042903005981444,232.44050326171876,58.18349300598145,233.55295326171876,57.604133005981446C235.91545326171874,56.384483005981444,238.72090326171875,56.313123005981446,241.14449326171876,57.411033005981444C242.28559326171876,57.93500300598144,243.26369326171874,58.74870300598145,243.97769326171874,59.768103005981445C244.69799326171875,60.79390300598145,245.09629326171876,62.004603005981444,245.12329326171874,63.25050300598144C245.17449326171874,64.54110300598144,244.86009326171876,65.82040300598145,244.21499326171875,66.94590300598145C243.57229326171876,68.07850300598145,242.63719326171875,69.02470300598145,241.50369326171875,69.68920300598144C239.15416326171874,71.06770300598144,236.24235326171876,71.14090300598144,233.82408326171876,69.88220300598144L233.81053326171875,69.88230300598144ZM239.49062326171875,66.51310300598145C240.01029326171874,66.23690300598145,240.42959326171876,65.80870300598144,240.69039326171875,65.28790300598145C240.96699326171876,64.68910300598145,241.09259326171875,64.03360300598145,241.05639326171874,63.37700300598144C241.05249326171875,62.72930300598144,240.88979326171875,62.09200300598145,240.58189326171876,61.51930300598144C240.29499326171876,61.011703005981445,239.85434326171875,60.60450300598144,239.32115326171876,60.35410300598144C238.71892326171874,60.081903005981445,238.05808326171876,59.958403005981445,237.39616326171875,59.99450300598144C236.73974326171876,59.99400300598145,236.09385326171875,60.156603005981445,235.51861326171874,60.467203005981446C235.00166326171876,60.746903005981444,234.58330326171875,61.17410300598144,234.31888326171875,61.69240300598145C234.04148326171875,62.27480300598145,233.91126326171874,62.914303005981445,233.93930326171875,63.55680300598144C233.93881326171876,64.21270300598144,234.09923326171875,64.85900300598145,234.40700326171876,65.44110300598145C234.68886326171875,65.95100300598145,235.12455326171875,66.36270300598144,235.65418326171874,66.61960300598145C236.88748326171876,67.13310300598144,238.28674326171875,67.09670300598145,239.49062326171875,66.51980300598144L239.49062326171875,66.51310300598145Z" fill="url(#master_svg8_26_04028)" fill-opacity="1"/></g><g><path d="M250.02386683984375,66.30002689709472C250.45472083984376,65.88854089709473,251.03635583984374,65.66526889709472,251.63705583984375,65.68079329709472L251.69805583984376,65.68079329709472C252.29751583984375,65.61899799709472,252.89739583984374,65.79386289709473,253.36547583984375,66.16685789709473C253.78805583984376,66.57730689709473,254.01871583984376,67.14136389709472,254.00262583984374,67.72492389709473L254.00262583984374,67.77819389709472C254.06558583984375,68.36018389709473,253.87892583984376,68.94165389709472,253.48747583984374,69.38287389709473C253.05048583984376,69.78910389709472,252.46908583984376,70.01134389709473,251.86749583984374,70.00211389709473L251.81329583984376,70.00211389709473C251.21292583984376,70.06205389709473,250.61295583984375,69.88476389709473,250.14586883984376,69.50938389709472C249.72120083984376,69.10029389709473,249.49015646984375,68.53530389709472,249.50873183984376,67.95131389709472L249.50873183984376,67.89138389709473C249.44963403984374,67.31384389709473,249.63604983984376,66.73796389709473,250.02386683984375,66.30002689709472Z" fill="url(#master_svg9_26_04029)" fill-opacity="1"/></g><g><path d="M264.8001889794922,68.93007535705567C264.4075789794922,69.30577535705567,263.8772089794922,69.50987535705566,263.3293189794922,69.49607535705566L263.26831897949216,69.49607535705566C262.72443897949216,69.56077535705566,262.1770289794922,69.40707535705566,261.7500189794922,69.06997535705567C261.3646089794922,68.70207535705566,261.15326897949217,68.19267535705566,261.1671089794922,67.66497535705567L260.3876289794922,51.75803535705566L259.3708989794922,51.811305357055666C258.8516389794922,51.869815357055664,258.3304769794922,51.71839535705566,257.9271549794922,51.391825357055666C257.5562269794922,51.03238535705567,257.35268418249217,50.53854535705567,257.3645781794922,50.02684535705566L257.3645781794922,49.97358535705566C257.3072179794922,49.467775357055665,257.4613229794922,48.960765357055664,257.7916049794922,48.56865535705566C258.1611889794922,48.20634835705567,258.66596897949216,48.008965357055665,259.18789897949216,48.022665357055665L261.3094689794922,47.922789557055665C262.09229897949217,47.830719557055666,262.8797089794922,48.05412235705566,263.4920289794922,48.542022357055664C264.0577689794922,49.096825357055664,264.3686489794922,49.854305357055665,264.3528289794922,50.639425357055664C264.70527897949216,57.38440535705566,264.88151897949217,60.760175357055665,265.24075897949217,67.50517535705566C265.2945389794922,68.01897535705567,265.1357589794922,68.53247535705566,264.8001889794922,68.93007535705567Z" fill="url(#master_svga_26_04030)" fill-opacity="1"/></g><g><path d="M297.74201052246093,55.63989575415039C298.10811052246095,55.97054975415039,298.3170105224609,56.43642175415039,298.3181105224609,56.92497175415039L298.3181105224609,56.98490175415039C298.38661052246096,57.45723175415039,298.2597105224609,57.936821754150394,297.96571052246094,58.31658175415039C297.61491052246095,58.68564175415039,297.1241105224609,58.89537175415039,296.61011052246096,58.89586175415039Q283.67061052246095,59.96121175415039,270.73109052246093,60.68032175415039C270.23392052246095,60.74022175415039,269.73312752246096,60.60103175415039,269.3415765224609,60.29413175415039C268.98394852246093,59.95656175415039,268.7830327224609,59.48960175415039,268.78576322246096,59.00240175415039L268.78576322246096,58.94913175415039C268.72927172246096,58.46919175415039,268.87636452246096,57.98758175415039,269.19245652246093,57.61745175415039C269.55378652246094,57.26993175415039,270.0425405224609,57.08029175415039,270.54808052246096,57.09143175415039Q283.4266105224609,56.36566175415039,296.35931052246093,55.32029205415039C296.84501052246094,55.244827854150394,297.3415105224609,55.35958435415039,297.74201052246093,55.63989575415039Z" fill="url(#master_svgb_26_04031)" fill-opacity="1"/></g><g><path d="M300.5075288339844,57.85716135787964C300.65474583398435,57.20646135787964,300.88236683398435,56.57586135787964,301.18534383398435,55.97946135787964C303.1171148339844,52.07764135787964,304.0796048339844,50.12007135787964,305.9707148339844,46.20492135787964C306.17144483398437,45.754531357879635,306.49227483398437,45.36575035787964,306.89931483398436,45.07964435787964C307.3236148339844,44.808734357879636,307.81112483398437,44.64833905787964,308.31594483398436,44.61355525787964L308.40406483398436,44.61355525787964C309.0266048339844,44.46471635787964,309.68112483398437,44.67645835787964,310.09181483398436,45.15954535787964C310.40800483398436,45.700361357879636,310.38700483398435,46.37003135787964,310.03760483398435,46.89073135787964C308.0041548339844,51.17210135787964,306.9332148339844,53.30945135787964,304.81842483398435,57.57746135787964C304.65879483398436,57.87806135787964,304.5489748339844,58.20176135787964,304.49306483398436,58.53636135787964C304.4411848339844,58.92086135787964,304.4411848339844,59.31036135787964,304.49306483398436,59.69486135787964L300.42617383398436,60.04116135787964C300.34610113398435,59.31306135787964,300.3735091339844,58.57746135787964,300.5075288339844,57.85716135787964ZM304.73032483398435,66.01376135787964C303.5245348339844,65.48816135787965,302.4833048339844,64.65606135787964,301.7140348339844,63.603361357879635C300.9377198339844,62.55826135787964,300.4687648339844,61.323661357879644,300.35840883398436,60.034461357879636C300.23756553398437,58.79286135787964,300.48721583398435,57.54356135787964,301.07689083398435,56.438961357879634C301.66642483398437,55.34596135787964,302.5413448339844,54.42669135787964,303.6119148339844,53.77554135787964C305.8907048339844,52.409911357879636,308.68666483398437,52.163801357879635,311.1763048339844,53.109701357879636C312.3493048339844,53.55029135787964,313.3828048339844,54.28765135787964,314.17230483398436,55.24706135787964C314.9546048339844,56.22576135787964,315.4262048339844,57.40916135787964,315.5279048339844,58.64946135787964C315.66440483398435,59.93676135787964,315.42950483398437,61.23586135787964,314.85010483398435,62.39816135787964C314.29860483398437,63.55646135787964,313.4480048339844,64.55276135787963,312.3828048339844,65.28796135787964C310.13008483398437,66.81446135787964,307.2309848339844,67.07936135787963,304.73030483398435,65.98706135787964L304.73032483398435,66.01376135787964ZM310.1528348339844,62.27836135787964C310.6552048339844,61.960361357879634,311.0420048339844,61.494161357879634,311.25770483398435,60.946661357879634C311.49750483398435,60.33206135787964,311.57900483398436,59.66876135787964,311.4949048339844,59.01576135787964C311.4498048339844,58.36806135787964,311.2426048339844,57.74136135787964,310.8916048339844,57.19136135787964C310.5648048339844,56.70216135787964,310.09098483398435,56.32516135787964,309.53602483398436,56.11266135787964C308.91604483398436,55.88256135787964,308.24824483398436,55.80486135787964,307.5907048339844,55.88626135787964C306.93563483398435,55.92546135787964,306.3013448339844,56.12696135787964,305.7470448339844,56.47216135787964C305.2490648339844,56.79666135787964,304.8617748339844,57.26066135787964,304.6354148339844,57.80386135787964C304.3910848339844,58.40106135787964,304.3047848339844,59.04936135787964,304.3846248339844,59.68826135787964C304.42351483398437,60.344361357879635,304.6285448339844,60.98066135787964,304.9811048339844,61.53926135787964C305.30444483398435,62.03566135787964,305.7822748339844,62.41636135787964,306.34352483398436,62.62456135787964C306.96445483398435,62.86026135787964,307.6347548339844,62.94256135787964,308.29563483398437,62.86426135787964C308.96235483398436,62.81966135787964,309.6085048339844,62.618761357879634,310.17993483398436,62.27836135787964L310.1528348339844,62.27836135787964Z" fill="url(#master_svgc_26_04032)" fill-opacity="1"/></g><g><path d="M320.6792759296875,61.36614028149414C321.0815629296875,60.92284628149414,321.6480329296875,60.65660528149414,322.2518129296875,60.62705508149414L322.3060229296875,60.62705508149414C322.8997529296875,60.52780008149414,323.5093129296875,60.66432178149414,324.0005629296875,61.00658428149414C324.4488929296875,61.38633028149414,324.7185329296875,61.93049228149414,324.7461629296875,62.51138228149414L324.7461629296875,62.571312281494144C324.8455929296875,63.14592228149414,324.7010929296875,63.73547228149414,324.3462529296875,64.20262228149414C323.9364629296875,64.63780228149415,323.3696429296875,64.89828228149415,322.7669529296875,64.92839228149414L322.7059529296875,64.92839228149414C322.1090629296875,65.02986228149415,321.4957229296875,64.89063228149413,321.0046339296875,64.54220228149414C320.5552679296875,64.16041228149415,320.2856351296875,63.61379228149414,320.2590338296875,63.03074228149414L320.2590338296875,62.977472281494144C320.1702941296875,62.40657228149414,320.3220205296875,61.82479228149414,320.6792759296875,61.36614028149414Z" fill="url(#master_svgd_26_04033)" fill-opacity="1"/></g><g><path d="M333.3137563574219,63.78319605178833L333.2527563574219,63.78319605178833C332.6534963574219,63.92199605178833,332.0236763574219,63.74849605178833,331.58533635742185,63.32369605178833C331.2266263574219,62.84309605178833,331.15683635742187,62.21079605178833,331.4023263574219,61.665796051788334C333.48322635742187,55.17379605178833,334.4931663574219,51.92449605178833,336.48593635742185,45.42588605178833C333.5916763574219,45.772126051788334,332.14114635742186,45.93858605178833,329.2401063574219,46.26484605178833C328.7259663574219,46.35822605178833,328.1952863574219,46.24291605178833,327.76923435742185,45.94523605178833C327.36549935742187,45.61256605178833,327.1200898574219,45.13044605178833,327.09142015742185,44.61355605178833L327.09142015742185,44.57360605178833C326.9981296574219,44.07187605178833,327.11816615742185,43.55451605178833,327.42354235742187,43.14204605178833C327.7671253574219,42.75159605178833,328.25506635742187,42.51193605178833,328.7791763574219,42.47620605178833C332.78505635742187,42.03008805178833,334.79138635742186,41.81036005178833,338.7905163574219,41.30431995178833C339.3147163574219,41.20878555178833,339.8564163574219,41.288486751788334,340.32911635742187,41.53070605178833C340.7228163574219,41.76428505178833,340.9758163574219,42.17186605178833,341.00691635742186,42.62268605178833L341.00691635742186,42.67595605178833C341.05941635742187,43.05094605178833,341.07301635742186,43.43019605178833,341.0476163574219,43.80788605178833C341.0054163574219,44.18303605178833,340.9260163574219,44.55323605178833,340.81031635742187,44.91318605178833C338.7294163574219,51.73809605178833,337.6653163574219,55.15379605178833,335.4895063574219,61.97209605178833C335.2477663574219,62.979596051788334,334.36514635742185,63.71429605178833,333.3137563574219,63.78319605178833Z" fill="url(#master_svge_26_04034)" fill-opacity="1"/></g></g></g></g></svg>
